<?xml version="1.0" encoding="UTF-8"?>
<svg id="Calque_1" xmlns="http://www.w3.org/2000/svg" version="1.1" viewBox="0 0 1000 1000">
  <!-- Generator: Adobe Illustrator 29.2.1, SVG Export Plug-In . SVG Version: 2.1.0 Build 116)  -->
  <defs>
    <style>
      .st0 {
        fill: #20197f;
      }

      .st1, .st2 {
        fill: #6f6977;
      }

      .st3 {
        fill: #fff;
      }

      .st4, .st2 {
        font-family: UtopiaStd-BlackHeadline, 'Utopia Std';
        font-size: 760.71px;
        font-weight: 800;
      }

      .st4, .st5 {
        fill: #85959e;
      }
    </style>
  </defs>
  <rect class="st0" x="1236" y="1000" width="1000" height="1000"/>
  <rect class="st3" x="188" y="157" width="566" height="633"/>
  <g>
    <line x1="476.85" y1="650.9" x2="600.52" y2="294.51"/>
    <path d="M476.9,705.12c-6.01,0-12.12-.61-18.2-1.9-37-7.83-58.87-37.61-48.83-66.5l123.67-356.38c10.03-28.9,48.17-45.96,85.15-38.14,37,7.83,58.87,37.61,48.83,66.5l-123.67,356.38c-8.38,24.15-36.38,40.04-66.95,40.04Z"/>
  </g>
  <text class="st2" transform="translate(262.67 565.1) scale(.66 .58)"><tspan x="0" y="0">H</tspan></text>
  <text class="st4" transform="translate(427.34 664.35) scale(.66 .58)"><tspan x="0" y="0">A</tspan></text>
  <polygon class="st3" points="748.36 764.81 526.27 717.98 652.91 351.62 875 398.45 748.36 764.81"/>
  <polygon points="461.42 537.59 480.44 541.63 471.19 568.16 452.17 564.12 461.42 537.59"/>
  <g>
    <line x1="1658.95" y1="507.82" x2="1763.53" y2="206.44"/>
    <path d="M1658.98,553.67c-5.08,0-10.25-.52-15.39-1.61-31.29-6.62-49.78-31.8-41.3-56.24l104.58-301.38c8.48-24.44,40.73-38.87,72-32.25,31.29,6.62,49.78,31.8,41.3,56.24l-104.58,301.38c-7.09,20.42-30.77,33.86-56.61,33.86Z"/>
  </g>
  <path class="st1" d="M1645.62,191.49v11.63c20.24.75,21.5,2.63,21.5,18.38v77.63h-60.71v-77.63c0-15.75,1.26-17.63,21.5-18.38v-11.63h-142.08v11.63c23.61.75,25.72,2.63,25.72,18.38v184.15c0,15-3.37,16.88-25.72,17.63v12h142.08v-12c-19.82-.75-21.5-1.88-21.5-17.63v-90.76h60.71v90.76c0,11.04-.6,14.88-7.47,16.43l-4.6,13.19h91.21l15.72-45.47v-168.3c0-15.75.42-17.63,25.72-18.38v-11.63h-142.08Z"/>
  <path class="st5" d="M1657.97,490.69c2.95-12.38,8.85-33.38,15.18-54.38h68.72c.63,1.86,1.29,3.85,1.98,5.95l46.32-134c-4.36-13.23-7.96-24.59-10.36-32.84h-69.99c-14.33,49.88-62.4,184.9-77.16,215.28-6.75,13.13-9.28,15-29.93,16.5v12h86.01v-12l-22.35-1.88c-9.28-.75-10.96-4.87-8.43-14.63ZM1705.61,332.05h2.11c8.85,27.38,21.5,65.26,28.67,88.14h-58.18c7.17-24.75,20.24-65.63,27.41-88.14Z"/>
  <path class="st1" d="M-458.27,73.66v13l87.33-.71,52.45-263.31h-139.79v12.59c17.12.81,18.19,2.84,18.19,19.9V-60.78h-51.36v-84.08c0-17.06,1.07-19.09,18.19-19.9v-12.59h-120.19v12.59c19.97.81,21.76,2.84,21.76,19.9V54.57c0,16.25-2.85,18.28-21.76,19.09v13h120.19v-13c-16.76-.81-18.19-2.03-18.19-19.09V-43.72h51.36V54.57c0,17.47-1.07,18.28-18.19,19.09Z"/>
  <path class="st5" d="M-444.02,146.69c2.5-13.4,7.49-36.15,12.84-58.9h58.13c.32,1.21.65,2.48.99,3.79l33.47-167.99c-.89-3.69-1.68-7.06-2.36-10.05h-59.2c-12.12,54.02-52.78,200.24-65.26,233.14-5.71,14.22-7.85,16.25-25.32,17.87v13h72.75v-13l-18.9-2.03c-7.85-.81-9.27-5.28-7.13-15.84ZM-403.72-25.12h1.78c7.49,29.65,18.19,70.67,24.25,95.45h-49.21c6.06-26.81,17.12-71.08,23.18-95.45Z"/>
  <rect class="st0" x="1595" y="705" width="166" height="465"/>
</svg>