<?xml version="1.0" encoding="UTF-8"?>
<svg id="Calque_1" xmlns="http://www.w3.org/2000/svg" version="1.1" viewBox="0 0 1000 1000">
  <!-- Generator: Adobe Illustrator 29.4.0, SVG Export Plug-In . SVG Version: 2.1.0 Build 152)  -->
  <defs>
    <style>
      .st0 {
        fill: #20197f;
      }

      .st1, .st2 {
        fill: #6f6977;
      }

      .st3, .st2 {
        font-family: UtopiaStd-BlackHeadline, 'Utopia Std';
        font-size: 760.7px;
        font-weight: 800;
      }

      .st3, .st4 {
        fill: #85959e;
      }

      .st5 {
        fill: #2a2a2a;
      }
    </style>
  </defs>
  <rect class="st5" width="1000" height="1000"/>
  <rect class="st5" x="188" y="157" width="566" height="633"/>
  <g>
    <line x1="476.9" y1="650.9" x2="600.5" y2="294.5"/>
    <path d="M476.9,705.1c-6,0-12.1-.6-18.2-1.9-37-7.8-58.9-37.6-48.8-66.5l123.7-356.4c10-28.9,48.2-46,85.1-38.1,37,7.8,58.9,37.6,48.8,66.5l-123.7,356.4c-8.4,24.1-36.4,40-66.9,40Z"/>
  </g>
  <text class="st2" transform="translate(262.7 565.1) scale(.7 .6)"><tspan x="0" y="0">H</tspan></text>
  <text class="st3" transform="translate(427.3 664.4) scale(.7 .6)"><tspan x="0" y="0">A</tspan></text>
  <polygon class="st5" points="748.4 764.8 526.3 718 652.9 351.6 875 398.4 748.4 764.8"/>
  <polygon points="461.4 537.6 480.4 541.6 471.2 568.2 452.2 564.1 461.4 537.6"/>
  <g>
    <line x1="1658.9" y1="507.8" x2="1763.5" y2="206.4"/>
    <path d="M1659,553.7c-5.1,0-10.2-.5-15.4-1.6-31.3-6.6-49.8-31.8-41.3-56.2l104.6-301.4c8.5-24.4,40.7-38.9,72-32.3,31.3,6.6,49.8,31.8,41.3,56.2l-104.6,301.4c-7.1,20.4-30.8,33.9-56.6,33.9Z"/>
  </g>
  <path class="st1" d="M1645.6,191.5v11.6c20.2.8,21.5,2.6,21.5,18.4v77.6h-60.7v-77.6c0-15.8,1.3-17.6,21.5-18.4v-11.6h-142.1v11.6c23.6.8,25.7,2.6,25.7,18.4v184.1c0,15-3.4,16.9-25.7,17.6v12h142.1v-12c-19.8-.8-21.5-1.9-21.5-17.6v-90.8h60.7v90.8c0,11-.6,14.9-7.5,16.4l-4.6,13.2h91.2l15.7-45.5v-168.3c0-15.8.4-17.6,25.7-18.4v-11.6h-142.1Z"/>
  <path class="st4" d="M1658,490.7c3-12.4,8.9-33.4,15.2-54.4h68.7c.6,1.9,1.3,3.9,2,5.9l46.3-134c-4.4-13.2-8-24.6-10.4-32.8h-70c-14.3,49.9-62.4,184.9-77.2,215.3-6.7,13.1-9.3,15-29.9,16.5v12h86v-12l-22.3-1.9c-9.3-.8-11-4.9-8.4-14.6ZM1705.6,332h2.1c8.9,27.4,21.5,65.3,28.7,88.1h-58.2c7.2-24.8,20.2-65.6,27.4-88.1Z"/>
  <path class="st1" d="M-458.3,73.7v13l87.3-.7,52.5-263.3h-139.8v12.6c17.1.8,18.2,2.8,18.2,19.9V-60.8h-51.4v-84.1c0-17.1,1.1-19.1,18.2-19.9v-12.6h-120.2v12.6c20,.8,21.8,2.8,21.8,19.9V54.6c0,16.2-2.9,18.3-21.8,19.1v13h120.2v-13c-16.8-.8-18.2-2-18.2-19.1V-43.7h51.4V54.6c0,17.5-1.1,18.3-18.2,19.1Z"/>
  <path class="st4" d="M-444,146.7c2.5-13.4,7.5-36.1,12.8-58.9h58.1c.3,1.2.7,2.5,1,3.8l33.5-168c-.9-3.7-1.7-7.1-2.4-10h-59.2c-12.1,54-52.8,200.2-65.3,233.1-5.7,14.2-7.8,16.2-25.3,17.9v13h72.8v-13l-18.9-2c-7.8-.8-9.3-5.3-7.1-15.8ZM-403.7-25.1h1.8c7.5,29.7,18.2,70.7,24.3,95.5h-49.2c6.1-26.8,17.1-71.1,23.2-95.5Z"/>
  <rect class="st0" x="1168" y="1113" width="166" height="465"/>
</svg>